{
    "asset" : {
        "generator" : "Khronos glTF Blender I/O v1.7.33",
        "version" : "2.0"
    },
    "scene" : 0,
    "scenes" : [
        {
            "name" : "Scene",
            "nodes" : [
                0,
                1,
                2,
                3,
                4,
                5,
                6
            ]
        }
    ],
    "nodes" : [
        {
            "mesh" : 0,
            "name" : "Cube",
            "translation" : [
                1,
                0,
                -2.814739942550659
            ]
        },
        {
            "name" : "Empty",
            "translation" : [
                0,
                -0.1412615329027176,
                0
            ]
        },
        {
            "mesh" : 1,
            "name" : "Cube.001",
            "translation" : [
                0,
                0.7507127523422241,
                0
            ]
        },
        {
            "mesh" : 2,
            "name" : "Cube.002",
            "translation" : [
                0.17399126291275024,
                1.7812961339950562,
                -1
            ]
        },
        {
            "mesh" : 3,
            "name" : "Cannon",
            "rotation" : [
                0,
                0,
                -0.6251016855239868,
                0.780543327331543
            ],
            "scale" : [
                0.2245464324951172,
                3.073634624481201,
                0.2245464324951172
            ],
            "translation" : [
                0.8381849527359009,
                1.9655778408050537,
                0
            ]
        },
        {
            "mesh" : 4,
            "name" : "Cylinder.001",
            "rotation" : [
                0.7071068286895752,
                0,
                0,
                0.7071068286895752
            ],
            "scale" : [
                0.6977905035018921,
                0.6977905035018921,
                0.6977905035018921
            ],
            "translation" : [
                -2.8389554023742676,
                -0.14002831280231476,
                -2.533154249191284
            ]
        },
        {
            "mesh" : 5,
            "name" : "Cube.003",
            "translation" : [
                1.77623450756073,
                -0.3851145803928375,
                -2.8166427612304688
            ]
        }
    ],
    "materials" : [
        {
            "doubleSided" : true,
            "name" : "Material.006",
            "pbrMetallicRoughness" : {}
        },
        {
            "doubleSided" : true,
            "name" : "Material.005",
            "pbrMetallicRoughness" : {}
        },
        {
            "doubleSided" : true,
            "name" : "Material.004",
            "pbrMetallicRoughness" : {}
        }
    ],
    "meshes" : [
        {
            "name" : "Cube.001",
            "primitives" : [
                {
                    "attributes" : {
                        "POSITION" : 0,
                        "NORMAL" : 1,
                        "TEXCOORD_0" : 2
                    },
                    "indices" : 3,
                    "material" : 0
                }
            ]
        },
        {
            "name" : "Cube.003",
            "primitives" : [
                {
                    "attributes" : {
                        "POSITION" : 4,
                        "NORMAL" : 5,
                        "TEXCOORD_0" : 6
                    },
                    "indices" : 7,
                    "material" : 0
                }
            ]
        },
        {
            "name" : "Cube.004",
            "primitives" : [
                {
                    "attributes" : {
                        "POSITION" : 8,
                        "NORMAL" : 9,
                        "TEXCOORD_0" : 10
                    },
                    "indices" : 11,
                    "material" : 0
                }
            ]
        },
        {
            "name" : "Cylinder",
            "primitives" : [
                {
                    "attributes" : {
                        "POSITION" : 12,
                        "NORMAL" : 13,
                        "TEXCOORD_0" : 14
                    },
                    "indices" : 15,
                    "material" : 0
                }
            ]
        },
        {
            "name" : "Cylinder.001",
            "primitives" : [
                {
                    "attributes" : {
                        "POSITION" : 16,
                        "NORMAL" : 17,
                        "TEXCOORD_0" : 18
                    },
                    "indices" : 19,
                    "material" : 1
                }
            ]
        },
        {
            "name" : "Cube.005",
            "primitives" : [
                {
                    "attributes" : {
                        "POSITION" : 20,
                        "NORMAL" : 21,
                        "TEXCOORD_0" : 22
                    },
                    "indices" : 23,
                    "material" : 2
                }
            ]
        }
    ],
    "accessors" : [
        {
            "bufferView" : 0,
            "componentType" : 5126,
            "count" : 40,
            "max" : [
                2.785722494125366,
                1,
                1
            ],
            "min" : [
                -1,
                0.3907560110092163,
                -0.03491288423538208
            ],
            "type" : "VEC3"
        },
        {
            "bufferView" : 1,
            "componentType" : 5126,
            "count" : 40,
            "type" : "VEC3"
        },
        {
            "bufferView" : 2,
            "componentType" : 5126,
            "count" : 40,
            "type" : "VEC2"
        },
        {
            "bufferView" : 3,
            "componentType" : 5123,
            "count" : 60,
            "type" : "SCALAR"
        },
        {
            "bufferView" : 4,
            "componentType" : 5126,
            "count" : 52,
            "max" : [
                3.5070881843566895,
                0.9045175909996033,
                1.8206632137298584
            ],
            "min" : [
                -3.9585962295532227,
                -0.9961660504341125,
                -1.8147637844085693
            ],
            "type" : "VEC3"
        },
        {
            "bufferView" : 5,
            "componentType" : 5126,
            "count" : 52,
            "type" : "VEC3"
        },
        {
            "bufferView" : 6,
            "componentType" : 5126,
            "count" : 52,
            "type" : "VEC2"
        },
        {
            "bufferView" : 7,
            "componentType" : 5123,
            "count" : 96,
            "type" : "SCALAR"
        },
        {
            "bufferView" : 8,
            "componentType" : 5126,
            "count" : 36,
            "max" : [
                1.2001144886016846,
                0.8237498998641968,
                1
            ],
            "min" : [
                -1.7925314903259277,
                -0.12606561183929443,
                -0.3030414581298828
            ],
            "type" : "VEC3"
        },
        {
            "bufferView" : 9,
            "componentType" : 5126,
            "count" : 36,
            "type" : "VEC3"
        },
        {
            "bufferView" : 10,
            "componentType" : 5126,
            "count" : 36,
            "type" : "VEC2"
        },
        {
            "bufferView" : 11,
            "componentType" : 5123,
            "count" : 60,
            "type" : "SCALAR"
        },
        {
            "bufferView" : 12,
            "componentType" : 5126,
            "count" : 442,
            "max" : [
                1.0000007152557373,
                1.6052463054656982,
                1
            ],
            "min" : [
                -1.000000238418579,
                -2.384185791015625e-07,
                -1
            ],
            "type" : "VEC3"
        },
        {
            "bufferView" : 13,
            "componentType" : 5126,
            "count" : 442,
            "type" : "VEC3"
        },
        {
            "bufferView" : 14,
            "componentType" : 5126,
            "count" : 442,
            "type" : "VEC2"
        },
        {
            "bufferView" : 15,
            "componentType" : 5123,
            "count" : 756,
            "type" : "SCALAR"
        },
        {
            "bufferView" : 16,
            "componentType" : 5126,
            "count" : 192,
            "max" : [
                0.8647922873497009,
                0.8593376278877258,
                0.8647922873497009
            ],
            "min" : [
                -0.8647922873497009,
                -0.04034285992383957,
                -0.8647922277450562
            ],
            "type" : "VEC3"
        },
        {
            "bufferView" : 17,
            "componentType" : 5126,
            "count" : 192,
            "type" : "VEC3"
        },
        {
            "bufferView" : 18,
            "componentType" : 5126,
            "count" : 192,
            "type" : "VEC2"
        },
        {
            "bufferView" : 19,
            "componentType" : 5123,
            "count" : 372,
            "type" : "SCALAR"
        },
        {
            "bufferView" : 20,
            "componentType" : 5126,
            "count" : 66,
            "max" : [
                1.7603124380111694,
                0.9656972289085388,
                1
            ],
            "min" : [
                -1.7760299444198608,
                0.22568418085575104,
                0.1143684834241867
            ],
            "type" : "VEC3"
        },
        {
            "bufferView" : 21,
            "componentType" : 5126,
            "count" : 66,
            "type" : "VEC3"
        },
        {
            "bufferView" : 22,
            "componentType" : 5126,
            "count" : 66,
            "type" : "VEC2"
        },
        {
            "bufferView" : 23,
            "componentType" : 5123,
            "count" : 108,
            "type" : "SCALAR"
        }
    ],
    "bufferViews" : [
        {
            "buffer" : 0,
            "byteLength" : 480,
            "byteOffset" : 0
        },
        {
            "buffer" : 0,
            "byteLength" : 480,
            "byteOffset" : 480
        },
        {
            "buffer" : 0,
            "byteLength" : 320,
            "byteOffset" : 960
        },
        {
            "buffer" : 0,
            "byteLength" : 120,
            "byteOffset" : 1280
        },
        {
            "buffer" : 0,
            "byteLength" : 624,
            "byteOffset" : 1400
        },
        {
            "buffer" : 0,
            "byteLength" : 624,
            "byteOffset" : 2024
        },
        {
            "buffer" : 0,
            "byteLength" : 416,
            "byteOffset" : 2648
        },
        {
            "buffer" : 0,
            "byteLength" : 192,
            "byteOffset" : 3064
        },
        {
            "buffer" : 0,
            "byteLength" : 432,
            "byteOffset" : 3256
        },
        {
            "buffer" : 0,
            "byteLength" : 432,
            "byteOffset" : 3688
        },
        {
            "buffer" : 0,
            "byteLength" : 288,
            "byteOffset" : 4120
        },
        {
            "buffer" : 0,
            "byteLength" : 120,
            "byteOffset" : 4408
        },
        {
            "buffer" : 0,
            "byteLength" : 5304,
            "byteOffset" : 4528
        },
        {
            "buffer" : 0,
            "byteLength" : 5304,
            "byteOffset" : 9832
        },
        {
            "buffer" : 0,
            "byteLength" : 3536,
            "byteOffset" : 15136
        },
        {
            "buffer" : 0,
            "byteLength" : 1512,
            "byteOffset" : 18672
        },
        {
            "buffer" : 0,
            "byteLength" : 2304,
            "byteOffset" : 20184
        },
        {
            "buffer" : 0,
            "byteLength" : 2304,
            "byteOffset" : 22488
        },
        {
            "buffer" : 0,
            "byteLength" : 1536,
            "byteOffset" : 24792
        },
        {
            "buffer" : 0,
            "byteLength" : 744,
            "byteOffset" : 26328
        },
        {
            "buffer" : 0,
            "byteLength" : 792,
            "byteOffset" : 27072
        },
        {
            "buffer" : 0,
            "byteLength" : 792,
            "byteOffset" : 27864
        },
        {
            "buffer" : 0,
            "byteLength" : 528,
            "byteOffset" : 28656
        },
        {
            "buffer" : 0,
            "byteLength" : 216,
            "byteOffset" : 29184
        }
    ],
    "buffers" : [
        {
            "byteLength" : 29400,
            "uri" : "data:application/octet-stream;base64,"
        }
    ]
}
