{
    "asset" : {
        "generator" : "Khronos glTF Blender I/O v1.7.33",
        "version" : "2.0"
    },
    "scene" : 0,
    "scenes" : [
        {
            "name" : "Scene",
            "nodes" : [
                0
            ]
        }
    ],
    "nodes" : [
        {
            "mesh" : 0,
            "name" : "Suzanne"
        }
    ],
    "materials" : [
        {
            "doubleSided" : true,
            "name" : "Material.001",
            "pbrMetallicRoughness" : {
                "baseColorFactor" : [
                    0.14239078760147095,
                    0.015693195164203644,
                    0.0010994517942890525,
                    1
                ],
                "metallicFactor" : 0,
                "roughnessFactor" : 0.5
            }
        },
        {
            "doubleSided" : true,
            "name" : "Material.002",
            "pbrMetallicRoughness" : {
                "baseColorFactor" : [
                    0.800000011920929,
                    0.800000011920929,
                    0.800000011920929,
                    1
                ],
                "metallicFactor" : 0,
                "roughnessFactor" : 0.5
            }
        },
        {
            "doubleSided" : true,
            "name" : "Material.003",
            "pbrMetallicRoughness" : {
                "baseColorFactor" : [
                    0,
                    0,
                    0,
                    1
                ],
                "metallicFactor" : 0,
                "roughnessFactor" : 0.5
            }
        }
    ],
    "meshes" : [
        {
            "name" : "Suzanne",
            "primitives" : [
                {
                    "attributes" : {
                        "POSITION" : 0,
                        "NORMAL" : 1,
                        "TEXCOORD_0" : 2
                    },
                    "indices" : 3,
                    "material" : 0
                },
                {
                    "attributes" : {
                        "POSITION" : 4,
                        "NORMAL" : 5,
                        "TEXCOORD_0" : 6
                    },
                    "indices" : 7,
                    "material" : 1
                },
                {
                    "attributes" : {
                        "POSITION" : 8,
                        "NORMAL" : 9,
                        "TEXCOORD_0" : 10
                    },
                    "indices" : 11,
                    "material" : 2
                }
            ]
        }
    ],
    "accessors" : [
        {
            "bufferView" : 0,
            "componentType" : 5126,
            "count" : 9232,
            "max" : [
                1.328185796737671,
                0.9392362236976624,
                0.8211784362792969
            ],
            "min" : [
                -1.328185796737671,
                -0.971822202205658,
                -0.7782661318778992
            ],
            "type" : "VEC3"
        },
        {
            "bufferView" : 1,
            "componentType" : 5126,
            "count" : 9232,
            "type" : "VEC3"
        },
        {
            "bufferView" : 2,
            "componentType" : 5126,
            "count" : 9232,
            "type" : "VEC2"
        },
        {
            "bufferView" : 3,
            "componentType" : 5123,
            "count" : 44544,
            "type" : "SCALAR"
        },
        {
            "bufferView" : 4,
            "componentType" : 5126,
            "count" : 320,
            "max" : [
                0.5373263955116272,
                0.4279514253139496,
                0.7916667461395264
            ],
            "min" : [
                -0.537326455116272,
                0.0590277798473835,
                0.6727430820465088
            ],
            "type" : "VEC3"
        },
        {
            "bufferView" : 5,
            "componentType" : 5126,
            "count" : 320,
            "type" : "VEC3"
        },
        {
            "bufferView" : 6,
            "componentType" : 5126,
            "count" : 320,
            "type" : "VEC2"
        },
        {
            "bufferView" : 7,
            "componentType" : 5123,
            "count" : 1536,
            "type" : "SCALAR"
        },
        {
            "bufferView" : 8,
            "componentType" : 5126,
            "count" : 348,
            "max" : [
                0.44979745149612427,
                0.3440394103527069,
                0.8224414587020874
            ],
            "min" : [
                -0.44979748129844666,
                0.1471354216337204,
                0.7802373766899109
            ],
            "type" : "VEC3"
        },
        {
            "bufferView" : 9,
            "componentType" : 5126,
            "count" : 348,
            "type" : "VEC3"
        },
        {
            "bufferView" : 10,
            "componentType" : 5126,
            "count" : 348,
            "type" : "VEC2"
        },
        {
            "bufferView" : 11,
            "componentType" : 5123,
            "count" : 1152,
            "type" : "SCALAR"
        }
    ],
    "bufferViews" : [
        {
            "buffer" : 0,
            "byteLength" : 110784,
            "byteOffset" : 0
        },
        {
            "buffer" : 0,
            "byteLength" : 110784,
            "byteOffset" : 110784
        },
        {
            "buffer" : 0,
            "byteLength" : 73856,
            "byteOffset" : 221568
        },
        {
            "buffer" : 0,
            "byteLength" : 89088,
            "byteOffset" : 295424
        },
        {
            "buffer" : 0,
            "byteLength" : 3840,
            "byteOffset" : 384512
        },
        {
            "buffer" : 0,
            "byteLength" : 3840,
            "byteOffset" : 388352
        },
        {
            "buffer" : 0,
            "byteLength" : 2560,
            "byteOffset" : 392192
        },
        {
            "buffer" : 0,
            "byteLength" : 3072,
            "byteOffset" : 394752
        },
        {
            "buffer" : 0,
            "byteLength" : 4176,
            "byteOffset" : 397824
        },
        {
            "buffer" : 0,
            "byteLength" : 4176,
            "byteOffset" : 402000
        },
        {
            "buffer" : 0,
            "byteLength" : 2784,
            "byteOffset" : 406176
        },
        {
            "buffer" : 0,
            "byteLength" : 2304,
            "byteOffset" : 408960
        }
    ],
    "buffers" : [
        {
            "byteLength" : 411264,
            "uri" : "data:application/octet-stream;base64,"
        }
    ]
}
